<?xml version="1.0" encoding="UTF-8" standalone="no"?>
<!-- Created with Inkscape (http://www.inkscape.org/) -->

<svg
   version="1.1"
   id="svg2"
   width="3430"
   height="880"
   viewBox="400 2500 3430 880"
   sodipodi:docname="zipfitvectorlogo.ai"
   inkscape:version="1.2.2 (b0a8486541, 2022-12-01)"
   xmlns:inkscape="http://www.inkscape.org/namespaces/inkscape"
   xmlns:sodipodi="http://sodipodi.sourceforge.net/DTD/sodipodi-0.dtd"
   xmlns="http://www.w3.org/2000/svg"
   xmlns:svg="http://www.w3.org/2000/svg">
  <defs
     id="defs6">
    <clipPath
       clipPathUnits="userSpaceOnUse"
       id="clipPath18">
      <path
         d="M 0,4320 H 2880 V 0 H 0 Z"
         id="path16" />
    </clipPath>
    <linearGradient
       x1="0"
       y1="0"
       x2="1"
       y2="0"
       gradientUnits="userSpaceOnUse"
       gradientTransform="matrix(2327.1155,-1343.5608,-1343.5608,-2327.1155,314.45505,2705.8989)"
       spreadMethod="pad"
       id="linearGradient112">
      <stop
         style="stop-opacity:1;stop-color:#ee3323"
         offset="0"
         id="stop88" />
      <stop
         style="stop-opacity:1;stop-color:#ee3323"
         offset="0.1832941"
         id="stop90" />
      <stop
         style="stop-opacity:1;stop-color:#fccf23"
         offset="0.278542"
         id="stop92" />
      <stop
         style="stop-opacity:1;stop-color:#fccf23"
         offset="0.35284685"
         id="stop94" />
      <stop
         style="stop-opacity:1;stop-color:#69bd45"
         offset="0.402488"
         id="stop96" />
      <stop
         style="stop-opacity:1;stop-color:#4fc9f5"
         offset="0.57204234"
         id="stop98" />
      <stop
         style="stop-opacity:1;stop-color:#4fc9f5"
         offset="0.575252"
         id="stop100" />
      <stop
         style="stop-opacity:1;stop-color:#2b2e84"
         offset="0.70972881"
         id="stop102" />
      <stop
         style="stop-opacity:1;stop-color:#2b2e84"
         offset="0.717944"
         id="stop104" />
      <stop
         style="stop-opacity:1;stop-color:#b3287c"
         offset="0.85123517"
         id="stop106" />
      <stop
         style="stop-opacity:1;stop-color:#b3287c"
         offset="0.909722"
         id="stop108" />
      <stop
         style="stop-opacity:1;stop-color:#b3287c"
         offset="1"
         id="stop110" />
    </linearGradient>
  </defs>
  <sodipodi:namedview
     id="namedview4"
     pagecolor="#ffffff"
     bordercolor="#000000"
     borderopacity="0.25"
     inkscape:showpageshadow="2"
     inkscape:pageopacity="0.0"
     inkscape:pagecheckerboard="0"
     inkscape:deskcolor="#d1d1d1"
     showgrid="false"
     inkscape:zoom="0.17829861"
     inkscape:cx="1918.1305"
     inkscape:cy="2877.1957"
     inkscape:window-width="1620"
     inkscape:window-height="1259"
     inkscape:window-x="932"
     inkscape:window-y="64"
     inkscape:window-maximized="0"
     inkscape:current-layer="g10">
    <inkscape:page
       x="0"
       y="0"
       id="page8"
       width="3430"
       height="880" />
  </sodipodi:namedview>
  <g
     id="g10"
     inkscape:groupmode="layer"
     inkscape:label="Page 1"
     transform="matrix(1.3333333,0,0,-1.3333333,0,5760)">
    <g
       id="g76">
      <g
         id="g78">
        <g
           id="g84">
          <g
             id="g86">
            <path
               d="m 1488.101,2400.88 c -0.708,0 -0.535,-0.016 -1.143,-0.022 v 0 c 0.673,0 1.292,0.015 1.967,0.019 v 0 c -0.221,0 -0.433,0 -0.633,0 v 0 c -0.065,0 -0.129,0 -0.191,0 m 0.824,0 c 0.745,-0.01 1.585,-0.017 2.33,-0.019 v 0 c -0.677,0.015 -1.259,0.021 -1.794,0.021 v 0 c -0.183,0 -0.362,-10e-4 -0.536,0 m 2.331,-0.024 c 0.081,0 0.162,0 0.244,0 v 0 c -0.082,0 -0.164,0 -0.244,0.01 v 0 z m 3.005,-0.117 c -0.473,0 -0.923,0.028 -1.4,0.028 v 0 h -10.848 c -0.01,0 -0.191,10e-4 -0.197,0 v 0 h -137.989 c -13.69,0 -33.939,-2.135 -60.751,-6.414 v 0 c -27.474,-4.278 -47.849,-6.537 -61.113,-6.763 v 0 l -3.374,-5.398 50.621,-0.675 c 5.077,0 12.091,-2.144 21.048,-6.422 v 0 c 8.974,-4.054 15.997,-6.081 21.076,-6.081 v 0 l 260.286,-4.312 c 0.534,-0.841 1.067,-1.679 1.563,-2.521 v 0 l -268.604,-3.971 c -12.381,-0.225 -30.656,-2.484 -54.819,-6.763 v 0 c -24.163,-4.279 -42.111,-6.64 -53.846,-7.089 v 0 l -2.358,-5.065 c 11.26,0 27.759,-2.251 49.505,-6.757 v 0 c 21.763,-4.277 38.156,-6.529 49.179,-6.755 v 0 l 292.812,-3.999 c 0.042,-0.718 0.079,-1.437 0.1,-2.144 v 0 l -307.931,-4.334 c -10.835,-0.226 -27.454,-2.585 -49.866,-7.089 v 0 c -22.192,-4.504 -39.022,-6.648 -50.486,-6.422 v 0 h -5.633 l -2.998,-4.724 c 11.244,-0.226 28.071,-2.594 50.478,-7.097 v 0 c 22.409,-4.504 39.454,-6.872 51.14,-7.097 v 0 l 96.09,-1.336 -2.06,-3.452 -121.344,-6.357 c -7.319,-0.45 -18.54,-2.811 -33.649,-7.09 v 0 c -14.889,-4.278 -26.306,-6.421 -34.255,-6.421 v 0 c -2.429,0 -7.385,0.115 -14.875,0.34 v 0 h -14.904 l -2.315,-4.39 h 3.31 c 31.099,-0.45 48.914,-1.463 53.434,-3.039 v 0 c 20.663,-7.208 33.193,-10.928 37.593,-11.154 v 0 l 100.893,-5.667 -1.819,-3.042 -109.431,-1.42 c -12.16,-0.225 -30.222,-2.593 -54.18,-7.097 v 0 c -23.737,-4.504 -41.459,-6.864 -53.178,-7.089 v 0 l -2.011,-4.732 c 11.243,-0.225 27.739,-2.593 49.485,-7.096 v 0 c 21.745,-4.504 38.24,-6.865 49.484,-7.089 v 0 l 314.379,-3.324 c -0.57,-0.704 -1.201,-1.448 -1.784,-2.16 v 0 l -325.595,-4.653 c -12.382,-0.225 -30.762,-2.478 -55.146,-6.756 v 0 c -24.162,-4.278 -42.224,-6.64 -54.179,-7.09 v 0 l -2.338,-4.731 c 10.361,-0.224 25.64,-2.592 45.841,-7.096 v 0 c 20.438,-4.279 36.059,-6.531 46.862,-6.755 v 0 l 297.998,-4.007 c -1.202,-0.729 -2.412,-1.432 -3.621,-2.131 v 0 l -304.094,-4.333 c -11.94,-0.226 -29.67,-2.586 -53.186,-7.09 v 0 c -23.499,-4.279 -41.104,-6.531 -52.822,-6.756 v 0 l -3.332,-4.731 c 11.243,-0.223 27.843,-2.591 49.811,-7.096 v 0 c 22.204,-4.28 39.042,-6.53 50.506,-6.756 v 0 l 97.989,-1.619 -1.499,-2.508 -116.472,-6.344 c -5.757,-0.224 -14.305,-2.361 -25.644,-6.414 v 0 c -11.102,-3.83 -19.645,-5.856 -25.622,-6.081 v 0 l -51.41,-1.014 -2.722,-5.407 h 2.324 c 32.865,-0.45 51.99,-1.571 57.376,-3.373 v 0 c 19.388,-6.532 31.502,-9.913 36.343,-10.139 v 0 l 100.445,-3.778 -1.534,-2.578 -117.266,-4.447 c -21.055,-4.053 -36.683,-7.884 -46.885,-11.487 v 0 c -23.521,-1.577 -41.23,-2.257 -53.135,-2.031 v 0 l -3.005,-4.724 h 2.649 c 31.557,-0.225 50.357,-1.355 56.39,-3.383 v 0 c 18.946,-6.531 30.84,-9.904 35.681,-10.129 v 0 l 101.333,-4.425 -1.527,-2.558 -112.507,-3.488 c -8.407,-0.224 -21.173,-2.708 -38.304,-7.437 v 0 c -17.129,-4.73 -30.222,-7.09 -39.276,-7.09 v 0 c -2.649,0 -7.272,0.111 -13.88,0.333 v 0 H 991.35 l -2.308,-4.39 48.255,-1.35 c 6.165,-0.224 14.839,-2.361 26.021,-6.415 v 0 c 11.401,-4.054 20.074,-6.196 26.02,-6.422 v 0 l 95.829,-4.084 -1.535,-2.571 -118.254,-3.815 c -7.746,-0.224 -19.291,-2.592 -34.639,-7.096 v 0 c -15.346,-4.505 -27.106,-6.756 -35.277,-6.756 v 0 c -2.649,0 -7.605,0.111 -14.874,0.341 v 0 H 966.01 l -2.691,-5.065 h 2.649 c 31.558,-0.225 50.029,-1.239 55.416,-3.04 v 0 c 21.547,-7.207 36.513,-10.813 44.903,-10.813 v 0 h 95.729 7.274 0.766 l 101.327,169.849 25.175,-0.419 c 0.721,-0.027 1.103,-0.055 1.869,-0.097 v 0 c 61.027,-2.493 98.129,-3.578 148.459,19.607 v 0 c 1.769,0.792 3.536,1.592 5.299,2.429 v 0 c 0.221,0.108 0.446,0.218 0.668,0.327 v 0 c 7.598,3.638 15.141,7.686 22.618,12.183 v 0 c 5.475,3.179 11.077,6.531 16.964,10.272 v 0 c 38.495,24.451 98.445,89.493 98.337,162.297 v 0 c -0.073,48.234 -29.298,69.528 -49.513,77.892 v 0 c -13.946,5.769 -36.785,6.758 -49.759,6.832 v 0 c 0.861,-0.026 1.828,-0.076 2.761,-0.115 m -120.336,-119.313 205.949,-2.869 c -0.168,-0.63 -0.353,-1.289 -0.532,-1.94 v 0 l -97.612,-3.871 c -17.709,-3.604 -30.877,-7.093 -39.517,-10.472 v 0 c -26.679,-2.476 -46.746,-3.605 -60.197,-3.381 v 0 l -2.997,-4.724 12.885,-0.34 c 24.27,-0.226 39.745,-1.463 46.422,-3.715 v 0 c 20.476,-6.756 32.366,-10.246 35.661,-10.472 v 0 l 86.891,-3.842 c -0.324,-0.536 -0.673,-1.091 -1.007,-1.633 v 0 l -215.808,-2.8 z m 1377.79,119.357 -0.01,-0.016 H 2445.26 c -12.364,0 -30.178,-2.027 -53.44,-6.081 v 0 c -24.162,-4.278 -41.993,-6.529 -53.491,-6.755 v 0 l -3.786,-6.414 c 23.167,-0.226 40.821,-0.342 52.965,-0.342 v 0 c 3.704,-0.676 11.246,-3.151 22.632,-7.429 v 0 c 9.244,-3.379 17.068,-5.066 23.471,-5.066 v 0 l 296.726,-3.97 -1.306,-2.204 -309.769,-4.297 c -11.941,-0.224 -29.769,-2.484 -53.491,-6.762 v 0 c -23.483,-4.054 -41.083,-6.19 -52.802,-6.415 v 0 l -3.076,-5.739 c 11.686,-0.226 29.61,-2.709 53.769,-7.438 v 0 c 23.511,-4.503 41.559,-6.756 54.144,-6.756 v 0 l 287.244,-2.969 -1.315,-2.196 -310.501,-4.632 c -11.719,-0.224 -29.33,-2.476 -52.83,-6.755 v 0 c -23.263,-4.054 -40.749,-6.189 -52.468,-6.413 v 0 l -3.459,-6.423 c 11.703,0 28.77,-2.135 51.197,-6.414 v 0 c 22.441,-4.054 39.283,-6.197 50.526,-6.422 v 0 l 199.863,-3.382 -1.79,-2.99 -115.079,-4.433 c -5.979,-0.225 -14.87,-2.476 -26.668,-6.755 v 0 c -11.78,-4.054 -20.762,-6.081 -26.944,-6.081 v 0 l -48.709,-0.341 -2.999,-4.724 h 4.632 c 29.111,-0.45 47.232,-1.803 54.349,-4.055 v 0 c 19.406,-6.306 31.406,-9.688 36.009,-10.138 v 0 c 43.866,-2.04 77.288,-3.296 101.32,-3.857 v 0 l -1.697,-2.848 -115.015,-4.442 c -7.745,-0.223 -19.612,-2.475 -35.604,-6.754 v 0 c -15.994,-4.279 -28.186,-6.414 -36.577,-6.414 v 0 c -2.65,0 -7.613,0.109 -14.882,0.334 v 0 h -14.904 l -2.997,-4.724 c 38.304,-4.504 66.804,-8.784 85.491,-12.837 v 0 c 15.681,-2.928 35.325,-4.506 58.932,-4.732 v 0 c 17.106,-0.195 34.329,-0.393 51.602,-0.588 v 0 l -1.428,-2.388 -115.279,-4.119 c -7.965,-0.226 -20.18,-2.702 -36.647,-7.431 v 0 c -16.231,-4.504 -28.757,-6.64 -37.572,-6.415 v 0 l -28.784,0.334 -2.011,-4.731 48.867,-2.024 c 19.35,-4.054 33.643,-7.884 42.871,-11.487 v 0 c 45.056,-3.3 79.442,-4.912 104.175,-5.001 v 0 l -1.224,-2.046 -113.409,-4.432 c -6.42,-0.225 -15.952,-2.253 -28.599,-6.082 v 0 c -12.648,-3.827 -22.293,-5.855 -28.933,-6.08 v 0 l -46.771,-1.016 -2.643,-4.389 c 15.865,-0.452 39.68,-3.833 71.45,-10.138 v 0 c 30.445,-6.305 54.276,-9.455 71.498,-9.455 v 0 c 4.194,0 14.26,0.225 30.19,0.675 v 0 c 9,0.162 16.328,0.166 22.861,0.097 v 0 l -1.216,-2.046 -116.159,-4.127 c -5.978,-0.225 -14.749,-2.477 -26.325,-6.755 v 0 c -11.34,-4.054 -20.101,-6.081 -26.284,-6.081 v 0 l -49.044,-0.334 -2.357,-5.072 48.937,-1.008 c 5.724,-0.225 13.616,-2.477 23.676,-6.756 v 0 c 10.077,-4.054 17.867,-6.197 23.37,-6.421 v 0 l 100.312,-3.46 -1.734,-2.905 -118.254,-4.447 c -7.745,-0.224 -19.396,-2.586 -34.965,-7.09 v 0 c -15.346,-4.504 -27.44,-6.756 -36.271,-6.756 v 0 c -2.209,0 -6.945,0.111 -14.214,0.334 v 0 h -14.244 l -2.314,-4.391 c 30.198,-0.675 58.263,-4.838 84.191,-12.495 v 0 c 15.123,-4.503 34.717,-6.755 58.784,-6.755 v 0 c 29.001,0.14 44.547,0.298 52.737,0.441 v 0 l -0.839,-1.399 -115.22,-4.447 c -8.187,-0.225 -20.728,-2.593 -37.621,-7.097 v 0 c -16.657,-4.278 -29.401,-6.414 -38.232,-6.414 v 0 h -27.485 l -2.315,-4.391 h 5.299 c 29.128,-0.224 46.599,-1.353 52.411,-3.381 v 0 c 19.829,-6.53 32.157,-10.02 36.982,-10.47 v 0 c 44.113,-2.464 77.676,-4.038 101.716,-4.817 v 0 l -1.094,-1.84 -115.306,-3.816 c -5.977,-0.223 -14.751,-2.359 -26.311,-6.413 v 0 c -11.341,-4.055 -19.993,-6.197 -25.973,-6.421 v 0 l -50.421,-1.009 -2.664,-4.732 44.967,-1.014 c 5.944,-0.225 14.489,-2.593 25.637,-7.097 v 0 c 11.164,-4.278 19.838,-6.415 26.02,-6.415 v 0 h 102.023 7.275 0.766 l 202.633,339.677 84.661,-1.428 -0.077,-0.122 8.021,-0.042 73.151,123.045 -8.062,-0.036 z M 918.452,2400.766 H 586.456 c -13.247,0 -32.497,-2.025 -57.747,-6.079 v 0 c -25.928,-4.28 -45.192,-6.53 -57.795,-6.757 v 0 l -2.72,-5.404 c 10.361,-0.225 25.647,-2.586 45.847,-7.089 v 0 c 20.437,-4.28 35.948,-6.532 46.529,-6.757 v 0 l 317.626,-4.922 -2.464,-2.273 -325.54,-3.274 c -11.939,-0.226 -29.552,-2.486 -52.83,-6.764 v 0 c -23.28,-4.279 -40.563,-6.639 -51.858,-7.089 v 0 l -2.975,-4.39 c 11.005,-0.451 27.715,-2.926 50.122,-7.431 v 0 c 21.763,-4.278 38.595,-6.53 50.502,-6.756 v 0 l 288.407,-4.908 -2.862,-2.629 -302.218,-2.94 c -11.94,-0.226 -29.771,-2.478 -53.49,-6.755 v 0 c -23.721,-4.28 -41.553,-6.532 -53.491,-6.756 v 0 l -2.693,-5.065 c 11.244,-0.225 27.851,-2.586 49.819,-7.09 v 0 c 22.187,-4.504 39.014,-6.872 50.478,-7.096 v 0 l 267.816,-4.555 -2.346,-2.152 -151.35,-4.105 c -8.186,-0.225 -20.503,-2.586 -36.953,-7.09 v 0 c -16.435,-4.279 -28.96,-6.421 -37.571,-6.421 v 0 h -27.818 l -3.331,-4.731 50.598,-1.009 c 6.165,-0.224 14.828,-2.477 25.993,-6.756 v 0 c 11.181,-4.053 19.854,-6.195 26.02,-6.421 v 0 l 110.64,-3.715 -3.225,-2.962 -142.94,-3.453 c -6.861,-0.225 -16.948,-2.368 -30.276,-6.422 v 0 c -13.31,-3.829 -23.4,-5.855 -30.261,-6.081 v 0 l -50.082,-1.008 -1.654,-4.391 46.934,-1.356 c 6.164,-0.225 14.721,-2.477 25.665,-6.755 v 0 c 11.181,-4.054 19.741,-6.189 25.688,-6.416 v 0 l 113.53,-4.02 -2.543,-2.343 -144.197,-3.772 c -7.083,-0.226 -17.734,-2.478 -31.96,-6.757 v 0 c -14.209,-4.053 -25.07,-6.08 -32.577,-6.08 v 0 l -44.731,-0.334 -2.673,-4.731 h 6.295 c 28.228,-0.451 45.148,-1.573 50.755,-3.374 v 0 c 23.517,-7.433 35.715,-11.153 36.599,-11.153 v 0 l 118.404,-4.333 -3.262,-2.999 -148.708,-3.139 c -7.965,-0.225 -19.961,-2.701 -35.987,-7.431 v 0 c -16.009,-4.504 -28.208,-6.754 -36.597,-6.754 v 0 c -2.65,0 -7.832,0.11 -15.544,0.339 v 0 h -15.563 l -2.622,-4.056 c 32.628,-0.676 58.955,-4.506 78.972,-11.487 v 0 c 12.914,-4.504 36.131,-6.98 69.658,-7.431 v 0 h 62.931 l -2.486,-2.286 -146.648,-3.452 c -6.419,-0.226 -15.85,-2.37 -28.294,-6.423 v 0 c -12.427,-3.828 -21.846,-5.855 -28.265,-6.081 v 0 l -50.108,-1.349 -2.339,-4.731 48.299,-0.676 c 8.373,-0.224 20.012,-2.585 34.914,-7.089 v 0 c 14.902,-4.504 26.198,-6.979 33.891,-7.43 v 0 l 92.448,-5.165 -4.306,-3.956 H 405.454 c -12.585,0 -30.842,-2.144 -54.783,-6.422 v 0 c -24.62,-4.503 -42.795,-6.865 -54.513,-7.09 v 0 l -1.953,-4.055 c 22.453,-0.902 39.294,-1.575 50.52,-2.025 v 0 c 4.587,-0.675 12.142,-3.042 22.661,-7.096 v 0 c 9.448,-3.604 17.154,-5.407 23.115,-5.407 v 0 l 313.96,-5.271 -1.122,-1.889 -345.387,-2.97 c -12.144,0 -30.194,-2.251 -54.151,-6.755 v 0 c -23.958,-4.505 -42.019,-6.872 -54.179,-7.096 v 0 l -1.975,-4.391 c 46.204,-5.18 80.615,-10.023 103.244,-14.527 v 0 c 48.562,-3.152 107.178,-4.731 175.845,-4.731 v 0 h 99.685 c 18.502,0 35.788,-0.123 52.596,-0.292 v 0 l -1.265,-2.13 -364.041,-2.977 c -12.806,0 -31.294,-2.252 -55.473,-6.755 v 0 c -25.062,-4.504 -43.573,-6.988 -55.529,-7.438 v 0 l -1.271,-3.716 c 10.564,-0.451 26.806,-3.259 48.723,-8.439 v 0 c 20.846,-4.729 37.123,-7.097 48.823,-7.097 v 0 h 364.311 0.768 l 71.313,118.568 -8.04,0.01 -0.008,-0.01 H 557.635 l 371.174,342.546 z m 1148.981,0 h -0.546 -273.676 c -12.585,0 -30.737,-2.135 -54.457,-6.415 v 0 c -24.384,-4.277 -42.431,-6.529 -54.15,-6.754 v 0 l -3.028,-5.073 c 11.464,-0.224 28.296,-2.478 50.502,-6.755 v 0 c 22.423,-4.279 39.375,-6.531 50.84,-6.756 v 0 l 258.487,-2.969 -1.314,-2.216 -271.197,-5.286 c -12.38,-0.224 -30.774,-2.592 -55.173,-7.096 v 0 c -24.18,-4.505 -42.346,-6.865 -54.507,-7.089 v 0 l -3.005,-4.731 c 10.802,-0.226 26.639,-2.587 47.502,-7.091 v 0 c 20.863,-4.503 36.705,-6.755 47.523,-6.755 v 0 l 264.825,-2.309 -1.513,-2.543 -269.363,-5.285 c -12.381,-0.225 -30.994,-2.592 -55.835,-7.097 v 0 c -24.604,-4.278 -43.091,-6.529 -55.474,-6.754 v 0 l -3.025,-5.066 c 12.126,-0.225 28.969,-2.361 50.528,-6.415 v 0 c 22.85,-4.504 39.56,-6.986 50.124,-7.437 v 0 c 38.009,-1.956 70.503,-2.937 97.746,-3.004 v 0 l -1.57,-2.636 -116.493,-4.83 c -5.978,-0.225 -14.859,-2.361 -26.638,-6.415 v 0 c -11.765,-3.828 -20.747,-5.856 -26.945,-6.081 v 0 l -49.449,-1.35 -2.997,-4.73 49.271,-1.016 c 5.724,-0.225 13.51,-2.477 23.35,-6.756 v 0 c 9.857,-4.053 17.534,-6.189 23.036,-6.415 v 0 l 102.329,-3.515 -1.158,-1.954 c -26.33,-0.319 -62.073,-3.092 -107.492,-8.384 v 0 c -52.572,-6.303 -90.15,-9.794 -112.72,-10.469 v 0 l -1.982,-4.391 48.283,-1.016 c 5.079,0 12.091,-2.135 21.048,-6.414 v 0 c 8.957,-4.278 16.09,-6.422 21.389,-6.422 v 0 l 268.199,-3.281 -1.158,-1.933 -275.104,-5.256 c -11.718,-0.226 -29.334,-2.587 -52.851,-7.09 v 0 c -23.279,-4.278 -40.777,-6.53 -52.496,-6.756 v 0 l -2.337,-4.731 c 10.36,-0.224 25.639,-2.592 45.839,-7.096 v 0 c 20.201,-4.504 35.71,-6.755 46.53,-6.755 v 0 l 266.379,-2.622 -1.555,-2.601 c -159.612,-3.172 -248.691,-4.907 -252.329,-4.907 v 0 c -14.793,0 -36.044,-2.253 -63.756,-6.757 v 0 c -28.815,-4.503 -49.976,-6.979 -63.477,-7.43 v 0 l -3.325,-4.731 49.243,-1.349 c 5.061,-0.227 12.082,-2.369 21.055,-6.422 v 0 c 8.974,-4.054 16.111,-6.081 21.41,-6.081 v 0 l 107.109,-1.321 -2.793,-4.681 -119.028,-4.803 c -7.965,-0.223 -20.508,-2.592 -37.621,-7.095 v 0 c -16.213,-4.28 -28.844,-6.415 -37.898,-6.415 v 0 h -25.168 l -1.698,-5.073 h 6.286 c 28.908,-0.224 46.275,-1.346 52.084,-3.374 v 0 c 19.831,-6.53 31.394,-9.911 34.689,-10.137 v 0 l 103.877,-4.134 -1.123,-1.881 -117.467,-4.797 c -5.757,-0.225 -14.304,-2.36 -25.642,-6.415 v 0 c -11.104,-3.827 -19.647,-5.855 -25.624,-6.08 v 0 l -50.444,-1.349 -2.357,-5.066 49.299,-0.674 c 5.298,0 12.43,-2.028 21.403,-6.081 v 0 c 9.193,-4.053 16.327,-6.197 21.388,-6.421 v 0 l 105.163,-3.823 -1.306,-2.18 -113.573,-4.469 c -6.42,-0.224 -15.851,-2.36 -28.294,-6.414 v 0 c -12.444,-4.055 -21.988,-6.197 -28.628,-6.422 v 0 l -47.793,-1.349 -2.998,-4.731 c 15.438,-0.227 38.73,-3.267 69.871,-9.122 v 0 c 30.053,-5.629 53.354,-8.446 69.914,-8.446 v 0 h 57.071 l -1.157,-1.939 -115.008,-4.476 c -5.979,-0.224 -14.859,-2.368 -26.64,-6.422 v 0 c -11.78,-4.053 -20.767,-6.189 -26.966,-6.414 v 0 l -50.109,-1.351 -2.336,-4.73 h 5.299 c 29.79,-0.226 47.7,-1.347 53.732,-3.375 v 0 c 21.137,-6.756 34.905,-10.137 41.307,-10.137 v 0 h 105.98 0.767 l 101.526,170.176 158.879,-1.954 0.01,0.01 0.76,-0.01 75.356,126.332 h -0.874 -159.932 l 27.201,45.606 h 159.469 0.149 l 1.187,-0.01 72.038,120.949 -2.678,-0.016 z m 102.443,-7.428 c -18.897,-4.731 -33.207,-7.098 -42.921,-7.098 v 0 c -3.311,0 -8.82,0.116 -16.53,0.341 v 0 c -7.49,0.224 -13.224,0.334 -17.197,0.334 v 0 l -2.722,-5.398 c 33.543,-0.226 53.548,-1.464 60.004,-3.716 v 0 c 18.285,-6.53 30.511,-9.911 36.677,-10.137 v 0 l 99.721,-3.453 -1.725,-2.89 -112.324,-3.793 c -5.979,-0.226 -14.971,-2.362 -26.973,-6.416 v 0 c -11.765,-3.828 -20.745,-5.854 -26.944,-6.08 v 0 l -50.748,-1.016 -2.358,-5.065 46.621,-1.016 c 6.387,-0.225 15.166,-2.36 26.347,-6.414 v 0 c 11.403,-4.053 20.076,-6.196 26.021,-6.423 v 0 l 96.327,-4.062 -1.578,-2.642 -113.098,-4.1 c -6.2,-0.225 -15.304,-2.368 -27.306,-6.421 v 0 c -11.764,-3.828 -20.745,-5.856 -26.945,-6.081 v 0 l -49.085,-1.009 -2.977,-4.39 c 30.418,-0.676 56.751,-4.397 78.993,-11.152 v 0 c 10.143,-3.153 30.192,-5.181 60.153,-6.082 v 0 c 18.784,-0.197 37.563,-0.516 56.332,-0.887 v 0 l -1.655,-2.778 -113.538,-4.098 c -5.978,-0.226 -14.739,-2.253 -26.284,-6.081 v 0 c -11.542,-3.828 -20.305,-5.856 -26.283,-6.082 v 0 l -50.749,-1.015 -2.662,-4.73 41.655,-1.01 c 6.828,-0.224 16.486,-2.476 28.976,-6.756 v 0 c 12.489,-4.278 22.035,-6.529 28.642,-6.755 v 0 l 96.177,-3.808 -1.523,-2.558 -114.303,-4.105 c -5.98,-0.224 -14.74,-2.251 -26.284,-6.08 v 0 c -11.544,-3.829 -20.305,-5.855 -26.283,-6.081 v 0 l -50.77,-1.35 -1.983,-4.397 46.956,-1.009 c 6.166,-0.226 14.608,-2.476 25.331,-6.755 v 0 c 10.96,-4.054 19.408,-6.197 25.353,-6.422 v 0 l 97.769,-4.383 -1.373,-2.308 -111.405,-3.78 c -6.2,-0.224 -15.525,-2.36 -27.969,-6.413 v 0 c -12.205,-3.829 -21.518,-5.857 -27.938,-6.082 v 0 l -50.415,-1.016 -1.981,-4.389 46.266,-1.35 c 6.166,-0.226 14.608,-2.477 25.331,-6.756 v 0 c 10.961,-4.052 19.416,-6.197 25.36,-6.421 v 0 l 98.714,-4.092 -1.557,-2.601 -117.829,-4.112 c -5.536,-0.226 -13.864,-2.368 -24.984,-6.422 v 0 c -10.88,-3.828 -19.185,-5.74 -24.925,-5.74 v 0 l -48.711,-0.341 -3.36,-5.065 49.556,-1.69 c 5.503,-0.224 13.181,-2.361 23.037,-6.415 v 0 c 10.077,-4.054 17.867,-6.196 23.372,-6.421 v 0 l 100.004,-3.758 -1.556,-2.615 -114.789,-4.098 c -7.743,-0.223 -19.391,-2.477 -34.941,-6.756 v 0 c -15.551,-4.279 -27.527,-6.415 -35.917,-6.415 v 0 c -3.312,0 -8.38,0.111 -15.209,0.334 v 0 c -6.828,0.227 -11.783,0.34 -14.876,0.34 v 0 l -4.346,-5.071 h 5.96 c 29.111,-0.451 46.672,-1.797 52.688,-4.05 v 0 c 19.574,-6.981 31.898,-10.588 36.959,-10.812 v 0 l 100.419,-3.786 -1.329,-2.23 -114.411,-4.112 c -7.745,-0.227 -19.403,-2.594 -34.972,-7.098 v 0 c -15.566,-4.503 -27.434,-6.755 -35.603,-6.755 v 0 c -3.532,0 -8.935,0.11 -16.203,0.34 v 0 c -7.254,0.45 -12.755,0.675 -16.509,0.675 v 0 l -2.699,-5.072 h 2.649 c 32.202,-0.45 51.318,-1.797 57.335,-4.049 v 0 c 19.149,-6.756 31.364,-10.246 36.647,-10.47 v 0 l 99.713,-3.78 -1.534,-2.565 -114.519,-4.127 c -7.082,-0.224 -17.059,-2.252 -29.927,-6.08 v 0 c -10.61,-3.154 -22.793,-5.18 -36.548,-6.081 v 0 c -5.333,-0.45 -17.614,-0.791 -36.84,-1.016 v 0 l -2.67,-4.731 h 5.632 c 29.553,-0.45 47.666,-1.796 54.343,-4.048 v 0 c 18.964,-6.305 29.767,-9.572 32.401,-9.796 v 0 l 103.884,-4.767 -1.337,-2.238 -114.943,-3.808 c -6.42,-0.224 -15.85,-2.361 -28.294,-6.414 v 0 c -12.206,-3.828 -21.518,-5.856 -27.939,-6.082 v 0 l -47.431,-1.013 -2.01,-4.732 48.284,-1.008 c 6.166,-0.226 14.828,-2.484 25.993,-6.763 v 0 c 11.385,-4.278 20.172,-6.415 26.354,-6.415 v 0 h 98.372 7.273 0.767 l 274.862,460.74 h -2.913 l -100.83,0.344 c -9.713,0 -24.027,-2.476 -42.94,-7.429 m -1131.614,0 c -18.896,-4.731 -33.205,-7.098 -42.92,-7.098 v 0 c -3.311,0 -8.819,0.116 -16.531,0.341 v 0 c -7.489,0.225 -13.224,0.334 -17.197,0.334 v 0 l -2.721,-5.398 c 33.544,-0.226 53.548,-1.464 60.005,-3.716 v 0 c 18.284,-6.53 30.511,-9.911 36.677,-10.137 v 0 l 99.728,-3.453 -1.727,-2.89 -112.33,-3.793 c -5.978,-0.226 -14.97,-2.362 -26.973,-6.416 v 0 c -11.763,-3.828 -20.745,-5.854 -26.944,-6.08 v 0 l -50.748,-1.016 -2.359,-5.065 46.621,-1.016 c 6.388,-0.225 15.167,-2.36 26.348,-6.414 v 0 c 11.402,-4.053 20.075,-6.196 26.021,-6.423 v 0 l 96.333,-4.062 -1.578,-2.642 -113.105,-4.1 c -6.198,-0.225 -15.297,-2.368 -27.299,-6.421 v 0 c -11.763,-3.828 -20.752,-5.856 -26.951,-6.081 v 0 l -49.087,-1.009 -2.976,-4.39 c 30.42,-0.676 56.751,-4.397 78.993,-11.152 v 0 c 10.144,-3.153 30.192,-5.181 60.154,-6.082 v 0 c 18.785,-0.198 37.566,-0.516 56.339,-0.887 v 0 l -1.662,-2.778 -113.539,-4.098 c -5.977,-0.226 -14.739,-2.253 -26.282,-6.081 v 0 c -11.544,-3.828 -20.306,-5.856 -26.284,-6.082 v 0 l -50.741,-1.015 -2.672,-4.73 41.656,-1.01 c 6.829,-0.224 16.487,-2.476 28.976,-6.756 v 0 c 12.49,-4.278 22.036,-6.529 28.643,-6.755 v 0 l 96.218,-3.75 -1.576,-2.635 -114.291,-4.086 c -5.978,-0.224 -14.741,-2.251 -26.284,-6.08 v 0 c -11.543,-3.829 -20.306,-5.855 -26.283,-6.081 v 0 l -50.77,-1.35 -1.982,-4.397 46.954,-1.009 c 6.166,-0.226 14.609,-2.477 25.333,-6.755 v 0 c 10.96,-4.054 19.415,-6.197 25.36,-6.422 v 0 l 97.767,-4.383 -1.378,-2.308 -111.407,-3.78 c -6.199,-0.224 -15.523,-2.361 -27.967,-6.413 v 0 c -12.207,-3.83 -21.519,-5.858 -27.939,-6.082 v 0 l -50.414,-1.016 -1.983,-4.389 46.267,-1.35 c 6.165,-0.226 14.615,-2.477 25.339,-6.756 v 0 c 10.959,-4.052 19.408,-6.197 25.353,-6.421 v 0 l 98.712,-4.092 -1.555,-2.601 -117.829,-4.112 c -5.537,-0.226 -13.864,-2.368 -24.984,-6.422 v 0 c -10.88,-3.828 -19.185,-5.74 -24.925,-5.74 v 0 l -48.711,-0.341 -3.36,-5.065 49.555,-1.69 c 5.503,-0.224 13.181,-2.361 23.037,-6.415 v 0 c 10.078,-4.054 17.869,-6.196 23.371,-6.421 v 0 l 100.006,-3.758 -1.556,-2.615 -114.789,-4.098 c -7.744,-0.225 -19.391,-2.477 -34.942,-6.756 v 0 c -15.551,-4.279 -27.526,-6.415 -35.916,-6.415 v 0 c -3.312,0 -8.381,0.111 -15.209,0.334 v 0 c -6.828,0.224 -11.784,0.34 -14.875,0.34 v 0 l -4.347,-5.071 h 5.96 c 29.11,-0.451 46.672,-1.797 52.687,-4.05 v 0 c 19.576,-6.981 31.899,-10.587 36.961,-10.812 v 0 l 100.424,-3.786 -1.336,-2.23 -114.411,-4.112 c -7.744,-0.227 -19.404,-2.594 -34.971,-7.098 v 0 c -15.568,-4.503 -27.434,-6.755 -35.603,-6.755 v 0 c -3.534,0 -8.935,0.11 -16.205,0.339 v 0 c -7.253,0.451 -12.755,0.676 -16.508,0.676 v 0 l -2.692,-5.072 h 2.649 c 32.202,-0.45 51.311,-1.798 57.328,-4.049 v 0 c 19.149,-6.757 31.365,-10.246 36.647,-10.47 v 0 l 99.713,-3.78 -1.533,-2.565 -114.519,-4.128 c -7.082,-0.223 -17.059,-2.251 -29.927,-6.079 v 0 c -10.612,-3.154 -22.793,-5.18 -36.549,-6.081 v 0 c -5.332,-0.45 -17.614,-0.791 -36.839,-1.016 v 0 l -2.672,-4.731 h 5.634 c 29.553,-0.45 47.672,-1.796 54.35,-4.049 v 0 c 18.963,-6.304 29.759,-9.57 32.392,-9.795 v 0 l 103.884,-4.768 -1.335,-2.237 -114.944,-3.808 c -6.419,-0.224 -15.851,-2.362 -28.293,-6.414 v 0 c -12.207,-3.828 -21.52,-5.856 -27.94,-6.082 v 0 l -47.431,-1.014 -2.01,-4.731 48.284,-1.008 c 6.165,-0.226 14.827,-2.484 25.992,-6.764 v 0 c 11.385,-4.277 20.172,-6.414 26.354,-6.414 v 0 h 98.372 7.274 0.767 l 161.8,271.211 13.462,21.986 -0.356,-0.015 99.955,167.562 h -2.302 l -101.44,0.34 c -9.713,0 -24.027,-2.476 -42.941,-7.429 m 1477.448,-351.37 c -6.206,-2.576 -12.002,-6.417 -17.385,-11.523 v 0 c -5.384,-5.105 -9.542,-10.726 -12.476,-16.862 v 0 c -2.934,-6.137 -4.669,-12.811 -5.202,-20.025 v 0 c -0.526,-7.119 0.223,-13.747 2.249,-19.883 v 0 c 2.03,-6.09 5.358,-11.687 9.987,-16.792 v 0 c 4.628,-5.105 9.854,-8.947 15.68,-11.523 v 0 c 5.871,-2.576 12.296,-3.864 19.279,-3.864 v 0 c 6.98,0 13.573,1.288 19.78,3.864 v 0 c 6.253,2.576 12.071,6.418 17.453,11.523 v 0 c 5.385,5.105 9.541,10.702 12.472,16.792 v 0 c 2.934,6.136 4.664,12.764 5.191,19.883 v 0 c 0.535,7.214 -0.212,13.888 -2.238,20.025 v 0 c -2.027,6.136 -5.354,11.757 -9.981,16.862 v 0 c -4.629,5.106 -9.879,8.947 -15.749,11.523 v 0 c -5.827,2.575 -12.229,3.864 -19.21,3.864 v 0 c -6.98,0 -13.597,-1.289 -19.85,-3.864 m -3.903,-90.003 c -5.023,2.247 -9.531,5.573 -13.52,9.977 v 0 c -3.993,4.402 -6.895,9.25 -8.707,14.543 v 0 c -1.809,5.34 -2.491,11.031 -2.045,17.073 v 0 c 0.451,6.089 1.976,11.804 4.576,17.145 v 0 c 2.603,5.385 6.226,10.28 10.869,14.683 v 0 c 4.642,4.404 9.64,7.706 14.991,9.906 v 0 c 5.353,2.203 11.037,3.303 17.054,3.303 v 0 c 6.061,0 11.606,-1.1 16.633,-3.303 v 0 c 5.072,-2.2 9.605,-5.502 13.596,-9.906 v 0 c 3.901,-4.356 6.735,-9.203 8.498,-14.544 v 0 c 1.768,-5.293 2.421,-11.054 1.96,-17.284 v 0 c -0.455,-6.135 -1.956,-11.85 -4.507,-17.143 v 0 c -2.502,-5.293 -6.052,-10.118 -10.646,-14.473 v 0 c -4.643,-4.404 -9.664,-7.73 -15.066,-9.977 v 0 c -5.352,-2.202 -11.059,-3.302 -17.122,-3.302 v 0 c -6.016,0 -11.536,1.1 -16.564,3.302 m 1.125,72.016 -4.344,-58.737 h 10.676 l 1.851,25.011 h 4.547 c 2.479,0 4.502,-0.607 6.064,-1.826 v 0 c 1.613,-1.17 3.607,-4.004 5.985,-8.501 v 0 l 7.799,-14.684 h 11.85 l -8.279,15.669 c -1.86,3.418 -3.504,6.018 -4.934,7.798 v 0 c -1.379,1.825 -2.607,2.926 -3.682,3.301 v 0 c 4.468,0.797 7.993,2.507 10.575,5.129 v 0 c 2.628,2.623 4.091,5.949 4.388,9.978 v 0 c 0.421,5.667 -1.267,9.883 -5.057,12.646 v 0 c -3.787,2.811 -9.722,4.216 -17.805,4.216 v 0 z m 10.143,-7.237 h 8.474 c 5.005,0 8.462,-0.749 10.373,-2.248 v 0 c 1.913,-1.452 2.738,-3.958 2.474,-7.518 v 0 c -0.26,-3.512 -1.454,-5.995 -3.582,-7.448 v 0 c -2.082,-1.452 -5.65,-2.177 -10.701,-2.177 v 0 h -8.472 z"
               style="fill:url(#linearGradient112);stroke:none"
               id="path114" />
          </g>
        </g>
      </g>
    </g>
  </g>
</svg>
